<?xml version="1.0" encoding="UTF-8" standalone="no"?>
<!-- Svg Vector Icons : http://www.onlinewebfonts.com/icon -->

<svg
   version="1.1"
   x="0px"
   y="0px"
   viewBox="0 0 1000 1000"
   enable-background="new 0 0 1000 1000"
   xml:space="preserve"
   id="svg36"
   sodipodi:docname="log.svg"
   inkscape:version="1.1.1 (3bf5ae0d25, 2021-09-20)"
   xmlns:inkscape="http://www.inkscape.org/namespaces/inkscape"
   xmlns:sodipodi="http://sodipodi.sourceforge.net/DTD/sodipodi-0.dtd"
   xmlns="http://www.w3.org/2000/svg"
   xmlns:svg="http://www.w3.org/2000/svg"><defs
   id="defs40" /><sodipodi:namedview
   id="namedview38"
   pagecolor="#ffffff"
   bordercolor="#666666"
   borderopacity="1.0"
   inkscape:pageshadow="2"
   inkscape:pageopacity="0.0"
   inkscape:pagecheckerboard="0"
   showgrid="false"
   inkscape:zoom="0.707"
   inkscape:cx="500"
   inkscape:cy="500"
   inkscape:window-width="1920"
   inkscape:window-height="1048"
   inkscape:window-x="0"
   inkscape:window-y="0"
   inkscape:window-maximized="1"
   inkscape:current-layer="svg36" />
<metadata
   id="metadata2"> Svg Vector Icons : http://www.onlinewebfonts.com/icon </metadata>
<g
   id="g34"><g
     transform="translate(0.000000,511.000000) scale(0.100000,-0.100000)"
     id="g32"><path
       d="M7328.5,3820.9c-61.7-73.2-1024.3-1760.6-1024.3-1794.9c0-50.3,57.2-91.5,116.6-82.3c38.9,4.6,157.8,194.3,560.2,887.1c281.3,484.7,509.9,903.2,509.9,930.6c2.3,45.7-54.9,98.3-107.5,98.3C7372,3859.8,7346.8,3841.5,7328.5,3820.9z"
       id="path4" /><path
       d="M5005.5,3718.1c-38.9-38.9-38.9-1323.9,0-1362.7c41.1-41.2,128-32,155.5,16c13.7,27.4,22.9,281.2,22.9,665.4c0,384.1-9.1,637.9-22.9,665.4C5133.5,3750.1,5046.6,3759.2,5005.5,3718.1z"
       id="path6" /><path
       d="M2961.4,3446c-22.9-11.4-41.2-41.2-41.2-64c0-43.4,708.8-1289.6,766-1349c18.3-20.6,52.6-25.2,89.2-16c45.7,11.4,59.5,29.7,59.5,75.5c0,54.9-665.4,1243.8-750,1339.9C3046,3475.7,3018.5,3480.3,2961.4,3446z"
       id="path8" /><path
       d="M1379.1,1994.1c-38.9-38.9-45.7-75.4-18.3-114.3c27.4-45.7,1369.6-809.4,1419.9-809.4c59.4,0,102.9,77.7,73.2,132.6c-20.6,38.9-1367.3,827.7-1415.3,827.7C1424.9,2030.6,1397.4,2014.6,1379.1,1994.1z"
       id="path10" /><path
       d="M7801.8,1406.4c-413.8-240.1-528.2-315.5-532.7-356.7c-9.2-59.5,32-116.6,84.6-116.6c20.6,2.3,274.4,139.5,562.5,306.4c402.4,233.2,528.2,317.8,532.7,354.4c9.2,59.4-32,116.6-84.6,116.6C8343.7,1710.5,8092.2,1573.3,7801.8,1406.4z"
       id="path12" /><path
       d="M4829.4,1454.4c-210.4-18.3-491.6-109.7-688.2-226.4c-185.2-109.7-464.2-391-576.2-580.8c-137.2-233.2-214.9-484.7-228.6-736.3c-9.2-201.2-9.2-210.4,48-267.5c64-64,148.6-75.4,228.6-32c77.7,41.2,105.2,91.5,107.5,189.8c4.6,308.7,144,635.6,377.3,871.1c194.4,196.6,359,292.7,610.5,356.7c701.9,176,1410.7-272.1,1566.2-994.6c36.6-178.3,29.7-397.9-18.3-603.6l-27.4-121.2H3226.6H224.5L165-742.9c-82.3-70.9-86.9-196.7-11.4-279l52.6-57.2h3459.4h3457.1l61.7,73.2c73.2,86.9,66.3,185.2-25.1,265.2c-50.3,45.7-82.3,50.3-285.8,50.3h-230.9l20.6,98.3c9.1,52.6,18.3,235.5,16,404.7c0,269.8-9.1,331.5-61.7,491.6c-210.4,635.6-784.3,1097.5-1429,1152.4C5092.4,1463.6,4930,1463.6,4829.4,1454.4z"
       id="path14" /><path
       d="M1703.8-52.3c-48-27.5-54.9-112.1-13.7-153.2c18.3-18.3,139.5-27.4,395.6-27.4c256.1,0,377.3,9.2,395.6,27.4c41.2,41.2,32,128-16,155.5C2408.1-20.3,1756.4-20.3,1703.8-52.3z"
       id="path16" /><path
       d="M7557.2-52.3c-48-27.5-54.9-112.1-13.7-153.2c18.3-18.3,134.9-27.4,372.7-27.4c354.4,0,400.1,11.4,400.1,93.7c0,96-54.9,112.1-395.5,112.1C7742.4-27.2,7577.8-38.6,7557.2-52.3z"
       id="path18" /><path
       d="M7422.3-756.6c-70.9-70.9-82.3-134.9-38.9-214.9c57.2-107.5,34.3-105.2,1255.3-107.5h1157l45.7,52.6c80,84.6,77.7,198.9-4.6,279l-54.9,57.2H8636.4H7488.6L7422.3-756.6z"
       id="path20" /><path
       d="M2083.4-1536.3c-125.8-50.3-157.8-208.1-68.6-313.3l54.9-64h788.8c731.7,0,791.1,2.3,834.6,41.2c61.7,57.2,82.3,146.3,48,226.4c-52.6,128-84.6,132.6-882.6,130.3C2458.4-1515.7,2108.5-1524.8,2083.4-1536.3z"
       id="path22" /><path
       d="M4372.1-1538.5c-75.4-43.4-102.9-93.8-102.9-185.2c0-96,54.9-169.2,144-189.8c29.7-9.2,237.8-11.4,459.6-6.9l407,6.9l54.9,64c70.9,82.3,70.9,178.3,0,260.7l-54.9,64l-432.1,6.9C4561.9-1515.7,4401.9-1522.5,4372.1-1538.5z"
       id="path24" /><path
       d="M3491.8-2238.2c-166.9-61.7-169.2-301.8-4.6-370.4c45.7-18.3,258.4-25.1,745.4-20.6l681.4,6.9l54.9,64c75.4,89.2,70.9,185.2-11.4,269.8l-66.3,66.3l-683.7-2.3C3832.5-2224.5,3510.1-2231.4,3491.8-2238.2z"
       id="path26" /><path
       d="M5867.5-2791.5c-82.3-84.6-86.9-180.6-11.4-269.8c54.9-64,57.2-64,363.5-70.9c349.8-9.2,423,11.4,473.3,132.6c22.9,54.9,22.9,82.3,0,137.2c-48,116.6-121.2,137.2-457.3,137.2h-301.8L5867.5-2791.5z"
       id="path28" /><path
       d="M4680.8-3244.3c-18.3-6.9-57.2-34.3-84.6-59.4c-59.4-52.6-70.9-185.2-22.9-246.9c64-82.3,114.3-89.2,802.6-89.2h672.2l70.9,59.4c93.7,77.8,98.3,203.5,11.4,285.8l-59.5,54.9l-676.8,4.6C5021.5-3232.8,4699.1-3237.4,4680.8-3244.3z"
       id="path30" /></g></g>
<path
   style="fill:#ffffff;stroke-width:1.41443"
   d="m 368.85993,305.86987 c -6.04565,-6.93304 -56.93215,-95.19319 -70.96537,-123.08595 -5.69114,-11.31186 -5.4023,-15.04379 1.29445,-16.72457 6.87399,-1.72526 8.30601,-0.008 27.8285,33.37488 31.65124,54.12238 56.39,101.05615 55.17023,104.66761 -1.61437,4.77981 -9.75934,5.8603 -13.32781,1.76803 z"
   id="path79" /><path
   style="fill:#ffffff;stroke-width:1.41443"
   d=""
   id="path118" /><path
   style="fill:#ffffff;stroke-width:1.41443"
   d="m 501.98198,274.9378 c -2.93751,-3.53948 -4.75095,-61.32207 -3.169,-100.9752 1.18668,-29.74519 1.56285,-33.02274 3.99413,-34.80053 3.66797,-2.68209 6.86994,-2.46287 10.82686,0.74125 l 3.33916,2.70388 v 64.33291 c 0,61.27846 -0.12794,64.47427 -2.69447,67.31026 -3.20233,3.53854 -9.63216,3.89799 -12.29668,0.68743 z"
   id="path157" /><path
   style="fill:#ffffff;stroke-width:1.41443"
   d="m 633.11685,312.3886 c -1.94617,-2.77854 -1.7616,-3.74214 2.23519,-11.66902 10.09145,-20.0145 84.99844,-150.94869 94.29974,-164.83189 6.88532,-10.27708 8.94386,-11.4137 13.93233,-7.69275 2.16735,1.61665 4.14649,3.98608 4.39809,5.26538 0.73169,3.7205 -35.68613,69.45846 -76.33562,137.79374 -22.23084,37.37195 -27.20039,44.1632 -32.31677,44.1632 -2.57816,0 -4.87628,-1.12027 -6.21296,-3.02866 z"
   id="path196" /><path
   style="fill:#ffffff;stroke-width:1.41443"
   d="m 731.45067,414.70969 c -5.21403,-4.51748 -4.98968,-7.9389 0.86753,-13.23054 8.91226,-8.05169 94.63398,-57.8724 103.49328,-60.14939 3.82786,-0.98382 8.60153,3.50916 8.60153,8.09575 0,4.90745 -15.32124,15.20644 -63.14993,42.4496 -24.05246,13.70025 -39.38524,22.02353 -44.63122,24.2277 -1.47198,0.61847 -3.48376,0.0775 -5.18119,-1.39312 z"
   id="path235" /><path
   style="fill:#ffffff;stroke-width:1.41443"
   d="m 15.912306,612.221 c -3.777004,-4.71431 -4.596889,-6.97101 -4.596889,-12.65277 0,-5.95867 0.707469,-7.69819 5.115081,-12.57689 l 5.115081,-5.66178 H 322.65397 c 165.60962,0 301.10841,-0.24817 301.10841,-0.55151 0,-0.30334 1.35124,-6.82739 3.00274,-14.49788 4.25987,-19.78509 4.26612,-49.06563 0.0141,-64.86574 -3.38932,-12.59364 -11.81612,-31.1604 -18.78332,-41.3853 -11.60953,-17.03742 -30.87041,-33.57685 -50.61287,-43.4613 -31.37556,-15.70879 -73.06545,-16.78595 -106.41463,-2.74947 -27.4277,11.54416 -52.17108,35.74729 -66.21587,64.7701 -8.33179,17.21722 -10.9122,26.51892 -12.80647,46.16402 -1.57945,16.38026 -3.23394,19.93452 -11.29063,24.25538 -6.53165,3.50296 -12.69,3.30104 -18.48793,-0.60619 -7.67777,-5.17403 -8.63587,-8.25557 -7.796,-25.07396 1.20422,-24.11413 5.91896,-42.3165 16.79385,-64.83672 9.78986,-20.27328 28.12499,-42.07653 50.37021,-59.89781 29.8705,-23.93013 74.77813,-36.29093 117.2844,-32.28246 64.57344,6.08948 120.48975,51.22408 141.94182,114.57278 4.70319,13.88863 6.84068,29.9351 6.78573,50.94111 -0.041,15.69313 -1.82643,39.15386 -3.46414,45.52054 l -0.97618,3.79493 24.06484,0.44835 c 23.42605,0.43645 24.1652,0.54221 27.84529,3.98441 9.08336,8.49625 9.61247,16.44495 1.77355,26.64429 l -4.525,5.88754 -345.87836,-0.073 -345.878356,-0.073 z"
   id="path274" /><path
   style="fill:#ffffff;stroke-width:1.41443"
   d="m 173.2984,532.05658 c -5.64304,-1.28101 -7.81898,-7.04332 -4.54597,-12.03857 3.13945,-4.79141 10.25875,-5.54316 46.80631,-4.94241 28.9083,0.47518 29.43464,0.53786 32.0926,3.82226 3.21683,3.97499 3.4205,7.15971 0.69635,10.88838 -1.88166,2.57551 -4.13773,2.76048 -36.42149,2.98606 -18.92858,0.13226 -36.31109,-0.18982 -38.6278,-0.71572 z"
   id="path313" /><path
   style="fill:#ffffff;stroke-width:1.41443"
   d="M 270.8628,400.02867 C 244.82194,386.41361 170.81566,344.16715 148.16124,329.98453 134.34861,321.33724 132.83757,318.23611 139.29188,311.7818 l 3.50687,-3.50688 8.86937,4.47555 c 22.0734,11.1384 109.46114,62.37809 128.03485,75.07307 6.68484,4.56903 7.5776,8.06421 3.18246,12.45935 -3.49747,3.49746 -4.90386,3.46772 -12.02263,-0.25422 z"
   id="path352" /><path
   style="fill:#ffffff;stroke-width:1.41443"
   d="m 758.79486,616.70174 c -13.50352,-1.18434 -16.51374,-2.57109 -19.5723,-9.01652 -3.77447,-7.95411 -2.98463,-12.45659 3.4719,-19.7916 l 5.77792,-6.56406 h 114.89098 114.89098 l 3.62787,3.88968 c 8.39489,9.0007 9.10779,17.1901 2.31932,26.64288 l -4.48306,6.24255 -104.78144,-0.20326 c -57.62979,-0.1118 -109.89377,-0.65165 -116.14217,-1.19967 z"
   id="path391" /><path
   style="fill:#ffffff;stroke-width:1.41443"
   d="m 759.11728,532.26567 c -6.90186,-1.12019 -8.95618,-12.57432 -2.76457,-15.41422 1.3681,-0.62751 15.8538,-1.37881 32.19043,-1.66956 35.91748,-0.63924 40.77745,0.33141 41.44351,8.27722 0.73287,8.74272 -0.44555,9.0489 -35.64616,9.2615 -17.19137,0.10383 -33.04181,-0.1009 -35.22321,-0.45494 z"
   id="path430" /><path
   style="fill:#ffffff;stroke-width:1.41443"
   d="m 442.84452,701.53857 c -7.71003,-1.63985 -12.44472,-5.92249 -14.3435,-12.97403 -3.1601,-11.73569 3.35939,-21.9633 15.24717,-23.9194 8.06636,-1.32729 74.52618,-1.65505 80.80883,-0.39852 3.16944,0.63389 5.59438,2.68131 8.66337,7.31463 6.42145,9.69464 5.37785,18.89709 -3.02942,26.7134 -3.19614,2.97148 -4.73243,3.11112 -42.2136,3.83699 -22.08031,0.42762 -41.59283,0.17986 -45.13285,-0.57307 z"
   id="path469" /><path
   style="fill:#ffffff;stroke-width:1.41443"
   d="m 359.19442,772.52099 c -14.49185,-1.48765 -21.61781,-7.86228 -21.61781,-19.33853 0,-6.85069 2.85644,-12.15373 8.56041,-15.89261 3.47944,-2.28072 9.77337,-2.5359 73.30169,-2.97195 l 69.49543,-0.47701 5.72453,6.50342 c 3.14849,3.57687 6.06584,8.24697 6.483,10.37799 0.82604,4.21976 -2.7184,13.14548 -7.29641,18.37408 l -2.78789,3.18408 -61.29955,0.59575 c -33.71475,0.32767 -65.46828,0.16781 -70.5634,-0.35522 z"
   id="path508" /><path
   style="fill:#ffffff;stroke-width:1.41443"
   d="m 594.76662,822.18411 c -6.29107,-1.5219 -13.43706,-11.15036 -13.43706,-18.10502 0,-4.89509 2.09816,-8.76397 8.23364,-15.18234 l 5.07032,-5.30411 17.74689,0.0383 c 23.33586,0.0504 42.49397,1.98367 48.03078,4.84686 5.4255,2.80564 10.82176,12.9732 9.55789,18.00886 -1.567,6.24345 -7.26683,13.12526 -12.30943,14.86205 -4.81326,1.6578 -56.64738,2.34629 -62.89303,0.83537 z"
   id="path547" /><path
   style="fill:#ffffff;stroke-width:1.41443"
   d="m 473.48218,872.58028 c -10.11521,-1.48146 -13.18853,-3.09288 -15.90035,-8.33698 -4.77456,-9.23296 -1.65973,-20.0868 7.37681,-25.70505 l 5.33839,-3.31901 68.42324,0.27345 68.42324,0.27346 3.49332,3.26261 c 10.48707,9.79445 9.8529,22.62364 -1.54819,31.31969 l -4.9395,3.76753 -61.26835,-0.17248 c -33.69759,-0.0949 -64.92697,-0.70831 -69.39861,-1.36322 z"
   id="path586" /><path
   style="fill:#ffffff;stroke-width:1.41443"
   d="m 203.2036,696.57753 c -7.87095,-9.95759 -7.69876,-21.1668 0.43021,-28.00688 3.83045,-3.22311 5.68625,-3.56439 24.37216,-4.48195 11.1243,-0.54625 45.04919,-0.75952 75.38866,-0.47392 47.70755,0.44909 55.8753,0.8382 60.43578,2.87915 9.99924,4.47496 13.89702,16.8445 8.23433,26.1315 -5.15795,8.45921 -2.41969,8.18795 -87.05767,8.62419 l -77.79349,0.40097 z"
   id="path625" /></svg>
