<?xml version="1.0" encoding="UTF-8" standalone="no"?>
<!-- Svg Vector Icons : http://www.onlinewebfonts.com/icon -->

<svg
   version="1.1"
   x="0px"
   y="0px"
   viewBox="0 0 1000 1000"
   enable-background="new 0 0 1000 1000"
   xml:space="preserve"
   id="svg8"
   sodipodi:docname="logo_simpl.svg"
   inkscape:version="1.1.1 (3bf5ae0d25, 2021-09-20)"
   xmlns:inkscape="http://www.inkscape.org/namespaces/inkscape"
   xmlns:sodipodi="http://sodipodi.sourceforge.net/DTD/sodipodi-0.dtd"
   xmlns="http://www.w3.org/2000/svg"
   xmlns:svg="http://www.w3.org/2000/svg"><defs
   id="defs12" /><sodipodi:namedview
   id="namedview10"
   pagecolor="#ffffff"
   bordercolor="#666666"
   borderopacity="1.0"
   inkscape:pageshadow="2"
   inkscape:pageopacity="0.0"
   inkscape:pagecheckerboard="0"
   showgrid="false"
   inkscape:zoom="0.707"
   inkscape:cx="500"
   inkscape:cy="500"
   inkscape:window-width="1920"
   inkscape:window-height="1048"
   inkscape:window-x="0"
   inkscape:window-y="0"
   inkscape:window-maximized="1"
   inkscape:current-layer="svg8" />
<metadata
   id="metadata2"> Svg Vector Icons : http://www.onlinewebfonts.com/icon </metadata>
<g
   id="g6"><path
     d="M402,794l294-392L598,10L108,990h784l-98-196H402z"
     id="path4" /></g>
<path
   style="fill:#ffffff;stroke-width:1.41443"
   d="M 110.40371,987.62376 C 110.44683,987.04031 220.13605,767.344 354.15754,499.40973 L 597.83296,12.256518 646.32443,206.23124 c 26.67031,106.6861 48.13853,194.8945 47.70714,196.01868 -0.43139,1.12417 -66.38307,89.50803 -146.55929,196.40857 -80.17624,106.90053 -145.77497,194.78872 -145.77497,195.30708 0,0.51838 88.15326,0.94249 195.89611,0.94249 h 195.89611 l 48.09258,96.17695 c 26.45092,52.89732 48.09257,96.49704 48.09257,96.88826 0,0.39123 -175.35361,0.71131 -389.67468,0.71131 -214.32107,0 -389.6394,-0.47737 -389.59629,-1.06082 z"
   id="path51" /></svg>
